<svg xmlns="http://www.w3.org/2000/svg" xmlns:xlink="http://www.w3.org/1999/xlink" width="300" zoomAndPan="magnify" viewBox="0 0 224.87999 38.249999" height="51" preserveAspectRatio="xMidYMid meet" version="1.0"><defs><g/></defs><g fill="#ffde59" fill-opacity="1"><g transform="translate(14.721268, 28.172968)"><g><path d="M 9.28125 -17.34375 C 8.550781 -17.34375 7.96875 -17.1875 7.53125 -16.875 C 7.09375 -16.570312 6.875 -16.132812 6.875 -15.5625 C 6.875 -15.28125 6.941406 -15.007812 7.078125 -14.75 C 7.210938 -14.5 7.394531 -14.257812 7.625 -14.03125 C 7.863281 -13.800781 8.140625 -13.582031 8.453125 -13.375 C 8.773438 -13.175781 9.125 -12.972656 9.5 -12.765625 L 12.03125 -11.4375 C 12.644531 -11.125 13.238281 -10.773438 13.8125 -10.390625 C 14.394531 -10.015625 14.910156 -9.582031 15.359375 -9.09375 C 15.816406 -8.613281 16.179688 -8.0625 16.453125 -7.4375 C 16.722656 -6.820312 16.859375 -6.128906 16.859375 -5.359375 C 16.859375 -4.648438 16.707031 -3.941406 16.40625 -3.234375 C 16.113281 -2.523438 15.632812 -1.882812 14.96875 -1.3125 C 14.3125 -0.75 13.453125 -0.289062 12.390625 0.0625 C 11.328125 0.414062 10.023438 0.59375 8.484375 0.59375 C 7.828125 0.59375 7.164062 0.570312 6.5 0.53125 C 5.84375 0.488281 5.207031 0.429688 4.59375 0.359375 C 3.976562 0.285156 3.390625 0.195312 2.828125 0.09375 C 2.273438 -0.0078125 1.785156 -0.117188 1.359375 -0.234375 L 1.578125 -6.703125 L 4.90625 -6.703125 L 4.96875 -6.234375 C 5 -5.859375 5.070312 -5.460938 5.1875 -5.046875 C 5.3125 -4.628906 5.519531 -4.25 5.8125 -3.90625 C 6.113281 -3.5625 6.515625 -3.273438 7.015625 -3.046875 C 7.523438 -2.828125 8.191406 -2.71875 9.015625 -2.71875 C 9.796875 -2.71875 10.425781 -2.863281 10.90625 -3.15625 C 11.394531 -3.457031 11.640625 -3.878906 11.640625 -4.421875 C 11.640625 -4.703125 11.578125 -4.957031 11.453125 -5.1875 C 11.328125 -5.425781 11.148438 -5.65625 10.921875 -5.875 C 10.691406 -6.09375 10.410156 -6.304688 10.078125 -6.515625 C 9.742188 -6.722656 9.367188 -6.9375 8.953125 -7.15625 L 6.140625 -8.65625 C 5.546875 -8.96875 4.976562 -9.3125 4.4375 -9.6875 C 3.90625 -10.0625 3.429688 -10.484375 3.015625 -10.953125 C 2.597656 -11.429688 2.265625 -11.96875 2.015625 -12.5625 C 1.773438 -13.15625 1.65625 -13.828125 1.65625 -14.578125 C 1.65625 -15.054688 1.703125 -15.535156 1.796875 -16.015625 C 1.898438 -16.503906 2.066406 -16.972656 2.296875 -17.421875 C 2.523438 -17.867188 2.832031 -18.289062 3.21875 -18.6875 C 3.601562 -19.082031 4.085938 -19.425781 4.671875 -19.71875 C 5.253906 -20.007812 5.941406 -20.238281 6.734375 -20.40625 C 7.523438 -20.570312 8.445312 -20.65625 9.5 -20.65625 C 10.164062 -20.65625 10.828125 -20.632812 11.484375 -20.59375 C 12.140625 -20.550781 12.769531 -20.488281 13.375 -20.40625 C 13.988281 -20.332031 14.566406 -20.242188 15.109375 -20.140625 C 15.648438 -20.046875 16.140625 -19.941406 16.578125 -19.828125 L 16.15625 -13.359375 L 12.828125 -13.359375 L 12.765625 -13.734375 C 12.710938 -14.097656 12.628906 -14.488281 12.515625 -14.90625 C 12.410156 -15.320312 12.234375 -15.710938 11.984375 -16.078125 C 11.742188 -16.441406 11.410156 -16.742188 10.984375 -16.984375 C 10.554688 -17.222656 9.988281 -17.34375 9.28125 -17.34375 Z M 9.28125 -17.34375 "/></g></g></g><g fill="#ffde59" fill-opacity="1"><g transform="translate(32.792339, 28.172968)"><g><path d="M 15.59375 -1.21875 C 15.125 -0.726562 14.59375 -0.34375 14 -0.0625 C 13.414062 0.21875 12.78125 0.359375 12.09375 0.359375 C 11.269531 0.359375 10.617188 0.15625 10.140625 -0.25 C 9.660156 -0.664062 9.332031 -1.203125 9.15625 -1.859375 C 8.925781 -1.554688 8.664062 -1.269531 8.375 -1 C 8.082031 -0.726562 7.753906 -0.488281 7.390625 -0.28125 C 7.023438 -0.0820312 6.617188 0.0703125 6.171875 0.1875 C 5.722656 0.300781 5.222656 0.359375 4.671875 0.359375 C 4.003906 0.359375 3.425781 0.257812 2.9375 0.0625 C 2.457031 -0.125 2.054688 -0.378906 1.734375 -0.703125 C 1.421875 -1.023438 1.1875 -1.390625 1.03125 -1.796875 C 0.875 -2.210938 0.796875 -2.640625 0.796875 -3.078125 C 0.796875 -3.722656 0.925781 -4.289062 1.1875 -4.78125 C 1.445312 -5.269531 1.789062 -5.6875 2.21875 -6.03125 C 2.644531 -6.382812 3.132812 -6.675781 3.6875 -6.90625 C 4.238281 -7.132812 4.804688 -7.3125 5.390625 -7.4375 C 5.984375 -7.5625 6.566406 -7.648438 7.140625 -7.703125 C 7.710938 -7.765625 8.238281 -7.800781 8.71875 -7.8125 C 8.738281 -7.9375 8.75 -8.039062 8.75 -8.125 C 8.75 -8.207031 8.75 -8.296875 8.75 -8.390625 C 8.75 -8.921875 8.59375 -9.320312 8.28125 -9.59375 C 7.96875 -9.875 7.539062 -10.015625 7 -10.015625 C 6.789062 -10.015625 6.554688 -9.988281 6.296875 -9.9375 C 6.046875 -9.882812 5.796875 -9.789062 5.546875 -9.65625 C 5.296875 -9.519531 5.066406 -9.328125 4.859375 -9.078125 C 4.648438 -8.835938 4.488281 -8.53125 4.375 -8.15625 C 4.144531 -8.15625 3.859375 -8.164062 3.515625 -8.1875 C 3.179688 -8.207031 2.851562 -8.28125 2.53125 -8.40625 C 2.21875 -8.53125 1.945312 -8.722656 1.71875 -8.984375 C 1.5 -9.242188 1.390625 -9.601562 1.390625 -10.0625 C 1.390625 -10.445312 1.46875 -10.789062 1.625 -11.09375 C 1.789062 -11.40625 2.015625 -11.679688 2.296875 -11.921875 C 2.585938 -12.171875 2.921875 -12.382812 3.296875 -12.5625 C 3.671875 -12.738281 4.070312 -12.882812 4.5 -13 C 4.925781 -13.125 5.359375 -13.210938 5.796875 -13.265625 C 6.242188 -13.328125 6.675781 -13.359375 7.09375 -13.359375 C 7.976562 -13.359375 8.78125 -13.28125 9.5 -13.125 C 10.21875 -12.96875 10.828125 -12.707031 11.328125 -12.34375 C 11.835938 -11.976562 12.226562 -11.5 12.5 -10.90625 C 12.769531 -10.320312 12.90625 -9.601562 12.90625 -8.75 C 12.90625 -8.46875 12.890625 -8.097656 12.859375 -7.640625 C 12.828125 -7.179688 12.789062 -6.71875 12.75 -6.25 C 12.71875 -5.78125 12.6875 -5.335938 12.65625 -4.921875 C 12.625 -4.515625 12.609375 -4.222656 12.609375 -4.046875 C 12.609375 -3.835938 12.640625 -3.660156 12.703125 -3.515625 C 12.765625 -3.378906 12.84375 -3.269531 12.9375 -3.1875 C 13.03125 -3.101562 13.140625 -3.039062 13.265625 -3 C 13.390625 -2.96875 13.507812 -2.953125 13.625 -2.953125 C 13.78125 -2.953125 13.914062 -2.96875 14.03125 -3 C 14.15625 -3.03125 14.289062 -3.082031 14.4375 -3.15625 Z M 8.390625 -5.375 C 8.078125 -5.375 7.71875 -5.34375 7.3125 -5.28125 C 6.914062 -5.21875 6.546875 -5.117188 6.203125 -4.984375 C 5.859375 -4.847656 5.566406 -4.671875 5.328125 -4.453125 C 5.085938 -4.234375 4.96875 -3.972656 4.96875 -3.671875 C 4.96875 -3.398438 5.0625 -3.175781 5.25 -3 C 5.445312 -2.820312 5.726562 -2.734375 6.09375 -2.734375 C 6.363281 -2.734375 6.632812 -2.785156 6.90625 -2.890625 C 7.1875 -2.992188 7.441406 -3.148438 7.671875 -3.359375 C 7.898438 -3.566406 8.097656 -3.835938 8.265625 -4.171875 C 8.441406 -4.515625 8.5625 -4.914062 8.625 -5.375 Z M 8.390625 -5.375 "/></g></g></g><g fill="#ffde59" fill-opacity="1"><g transform="translate(48.209719, 28.172968)"><g><path d="M 6.09375 -5.4375 C 6.09375 -5.0625 6.128906 -4.6875 6.203125 -4.3125 C 6.273438 -3.945312 6.394531 -3.617188 6.5625 -3.328125 C 6.726562 -3.035156 6.9375 -2.796875 7.1875 -2.609375 C 7.4375 -2.429688 7.738281 -2.34375 8.09375 -2.34375 L 8 0 L 7.671875 0 C 7.035156 0 6.429688 0.0078125 5.859375 0.03125 C 5.296875 0.0507812 4.753906 0.0820312 4.234375 0.125 C 3.710938 0.164062 3.203125 0.222656 2.703125 0.296875 C 2.210938 0.378906 1.722656 0.476562 1.234375 0.59375 C 1.472656 -1.207031 1.65625 -2.9375 1.78125 -4.59375 C 1.914062 -6.25 2.015625 -7.8125 2.078125 -9.28125 C 2.140625 -10.75 2.175781 -12.101562 2.1875 -13.34375 C 2.207031 -14.582031 2.21875 -15.679688 2.21875 -16.640625 C 2.21875 -17.535156 2.054688 -18.203125 1.734375 -18.640625 C 1.410156 -19.085938 0.890625 -19.347656 0.171875 -19.421875 L 0.265625 -21.734375 C 0.785156 -21.753906 1.359375 -21.796875 1.984375 -21.859375 C 2.609375 -21.921875 3.234375 -22 3.859375 -22.09375 C 4.484375 -22.1875 5.070312 -22.289062 5.625 -22.40625 C 6.1875 -22.519531 6.664062 -22.632812 7.0625 -22.75 C 6.800781 -20.664062 6.601562 -18.75 6.46875 -17 C 6.34375 -15.257812 6.25 -13.671875 6.1875 -12.234375 C 6.132812 -10.804688 6.101562 -9.523438 6.09375 -8.390625 C 6.09375 -7.265625 6.09375 -6.28125 6.09375 -5.4375 Z M 6.09375 -5.4375 "/></g></g></g><g fill="#ffde59" fill-opacity="1"><g transform="translate(56.689996, 28.172968)"><g><path d="M 5.015625 -4.9375 C 4.335938 -5.21875 3.738281 -5.492188 3.21875 -5.765625 C 2.695312 -6.035156 2.265625 -6.328125 1.921875 -6.640625 C 1.578125 -6.960938 1.316406 -7.316406 1.140625 -7.703125 C 0.960938 -8.097656 0.875 -8.554688 0.875 -9.078125 C 0.875 -9.566406 0.992188 -10.0625 1.234375 -10.5625 C 1.472656 -11.070312 1.851562 -11.53125 2.375 -11.9375 C 2.894531 -12.351562 3.578125 -12.691406 4.421875 -12.953125 C 5.265625 -13.222656 6.289062 -13.359375 7.5 -13.359375 C 8.238281 -13.359375 8.914062 -13.296875 9.53125 -13.171875 C 10.144531 -13.054688 10.671875 -12.878906 11.109375 -12.640625 C 11.554688 -12.398438 11.898438 -12.101562 12.140625 -11.75 C 12.390625 -11.40625 12.515625 -11.003906 12.515625 -10.546875 C 12.515625 -9.953125 12.335938 -9.410156 11.984375 -8.921875 C 11.640625 -8.429688 11.148438 -8.109375 10.515625 -7.953125 C 10.234375 -8.203125 9.929688 -8.46875 9.609375 -8.75 C 9.296875 -9.039062 8.96875 -9.304688 8.625 -9.546875 C 8.28125 -9.796875 7.921875 -10 7.546875 -10.15625 C 7.171875 -10.320312 6.789062 -10.40625 6.40625 -10.40625 C 6.09375 -10.40625 5.847656 -10.335938 5.671875 -10.203125 C 5.492188 -10.066406 5.40625 -9.890625 5.40625 -9.671875 C 5.40625 -9.523438 5.476562 -9.382812 5.625 -9.25 C 5.769531 -9.125 5.957031 -9.003906 6.1875 -8.890625 C 6.414062 -8.773438 6.671875 -8.660156 6.953125 -8.546875 C 7.234375 -8.441406 7.507812 -8.335938 7.78125 -8.234375 L 8.15625 -8.09375 C 8.925781 -7.78125 9.582031 -7.472656 10.125 -7.171875 C 10.664062 -6.878906 11.101562 -6.566406 11.4375 -6.234375 C 11.78125 -5.898438 12.023438 -5.539062 12.171875 -5.15625 C 12.328125 -4.78125 12.40625 -4.347656 12.40625 -3.859375 C 12.40625 -3.347656 12.269531 -2.835938 12 -2.328125 C 11.738281 -1.816406 11.328125 -1.363281 10.765625 -0.96875 C 10.210938 -0.570312 9.507812 -0.25 8.65625 0 C 7.8125 0.238281 6.804688 0.359375 5.640625 0.359375 C 4.878906 0.359375 4.179688 0.296875 3.546875 0.171875 C 2.921875 0.046875 2.382812 -0.132812 1.9375 -0.375 C 1.488281 -0.625 1.140625 -0.925781 0.890625 -1.28125 C 0.648438 -1.644531 0.53125 -2.066406 0.53125 -2.546875 C 0.53125 -3.171875 0.710938 -3.691406 1.078125 -4.109375 C 1.453125 -4.523438 1.96875 -4.816406 2.625 -4.984375 C 2.800781 -4.765625 3.019531 -4.519531 3.28125 -4.25 C 3.539062 -3.976562 3.84375 -3.71875 4.1875 -3.46875 C 4.53125 -3.226562 4.910156 -3.019531 5.328125 -2.84375 C 5.753906 -2.675781 6.210938 -2.59375 6.703125 -2.59375 C 7.035156 -2.59375 7.316406 -2.671875 7.546875 -2.828125 C 7.773438 -2.984375 7.890625 -3.1875 7.890625 -3.4375 C 7.890625 -3.59375 7.796875 -3.734375 7.609375 -3.859375 C 7.421875 -3.984375 7.1875 -4.109375 6.90625 -4.234375 C 6.625 -4.359375 6.3125 -4.476562 5.96875 -4.59375 C 5.632812 -4.707031 5.316406 -4.820312 5.015625 -4.9375 Z M 5.015625 -4.9375 "/></g></g></g><g fill="#ffde59" fill-opacity="1"><g transform="translate(69.987302, 28.172968)"><g><path d="M 15.59375 -1.21875 C 15.125 -0.726562 14.59375 -0.34375 14 -0.0625 C 13.414062 0.21875 12.78125 0.359375 12.09375 0.359375 C 11.269531 0.359375 10.617188 0.15625 10.140625 -0.25 C 9.660156 -0.664062 9.332031 -1.203125 9.15625 -1.859375 C 8.925781 -1.554688 8.664062 -1.269531 8.375 -1 C 8.082031 -0.726562 7.753906 -0.488281 7.390625 -0.28125 C 7.023438 -0.0820312 6.617188 0.0703125 6.171875 0.1875 C 5.722656 0.300781 5.222656 0.359375 4.671875 0.359375 C 4.003906 0.359375 3.425781 0.257812 2.9375 0.0625 C 2.457031 -0.125 2.054688 -0.378906 1.734375 -0.703125 C 1.421875 -1.023438 1.1875 -1.390625 1.03125 -1.796875 C 0.875 -2.210938 0.796875 -2.640625 0.796875 -3.078125 C 0.796875 -3.722656 0.925781 -4.289062 1.1875 -4.78125 C 1.445312 -5.269531 1.789062 -5.6875 2.21875 -6.03125 C 2.644531 -6.382812 3.132812 -6.675781 3.6875 -6.90625 C 4.238281 -7.132812 4.804688 -7.3125 5.390625 -7.4375 C 5.984375 -7.5625 6.566406 -7.648438 7.140625 -7.703125 C 7.710938 -7.765625 8.238281 -7.800781 8.71875 -7.8125 C 8.738281 -7.9375 8.75 -8.039062 8.75 -8.125 C 8.75 -8.207031 8.75 -8.296875 8.75 -8.390625 C 8.75 -8.921875 8.59375 -9.320312 8.28125 -9.59375 C 7.96875 -9.875 7.539062 -10.015625 7 -10.015625 C 6.789062 -10.015625 6.554688 -9.988281 6.296875 -9.9375 C 6.046875 -9.882812 5.796875 -9.789062 5.546875 -9.65625 C 5.296875 -9.519531 5.066406 -9.328125 4.859375 -9.078125 C 4.648438 -8.835938 4.488281 -8.53125 4.375 -8.15625 C 4.144531 -8.15625 3.859375 -8.164062 3.515625 -8.1875 C 3.179688 -8.207031 2.851562 -8.28125 2.53125 -8.40625 C 2.21875 -8.53125 1.945312 -8.722656 1.71875 -8.984375 C 1.5 -9.242188 1.390625 -9.601562 1.390625 -10.0625 C 1.390625 -10.445312 1.46875 -10.789062 1.625 -11.09375 C 1.789062 -11.40625 2.015625 -11.679688 2.296875 -11.921875 C 2.585938 -12.171875 2.921875 -12.382812 3.296875 -12.5625 C 3.671875 -12.738281 4.070312 -12.882812 4.5 -13 C 4.925781 -13.125 5.359375 -13.210938 5.796875 -13.265625 C 6.242188 -13.328125 6.675781 -13.359375 7.09375 -13.359375 C 7.976562 -13.359375 8.78125 -13.28125 9.5 -13.125 C 10.21875 -12.96875 10.828125 -12.707031 11.328125 -12.34375 C 11.835938 -11.976562 12.226562 -11.5 12.5 -10.90625 C 12.769531 -10.320312 12.90625 -9.601562 12.90625 -8.75 C 12.90625 -8.46875 12.890625 -8.097656 12.859375 -7.640625 C 12.828125 -7.179688 12.789062 -6.71875 12.75 -6.25 C 12.71875 -5.78125 12.6875 -5.335938 12.65625 -4.921875 C 12.625 -4.515625 12.609375 -4.222656 12.609375 -4.046875 C 12.609375 -3.835938 12.640625 -3.660156 12.703125 -3.515625 C 12.765625 -3.378906 12.84375 -3.269531 12.9375 -3.1875 C 13.03125 -3.101562 13.140625 -3.039062 13.265625 -3 C 13.390625 -2.96875 13.507812 -2.953125 13.625 -2.953125 C 13.78125 -2.953125 13.914062 -2.96875 14.03125 -3 C 14.15625 -3.03125 14.289062 -3.082031 14.4375 -3.15625 Z M 8.390625 -5.375 C 8.078125 -5.375 7.71875 -5.34375 7.3125 -5.28125 C 6.914062 -5.21875 6.546875 -5.117188 6.203125 -4.984375 C 5.859375 -4.847656 5.566406 -4.671875 5.328125 -4.453125 C 5.085938 -4.234375 4.96875 -3.972656 4.96875 -3.671875 C 4.96875 -3.398438 5.0625 -3.175781 5.25 -3 C 5.445312 -2.820312 5.726562 -2.734375 6.09375 -2.734375 C 6.363281 -2.734375 6.632812 -2.785156 6.90625 -2.890625 C 7.1875 -2.992188 7.441406 -3.148438 7.671875 -3.359375 C 7.898438 -3.566406 8.097656 -3.835938 8.265625 -4.171875 C 8.441406 -4.515625 8.5625 -4.914062 8.625 -5.375 Z M 8.390625 -5.375 "/></g></g></g><g fill="#ffde59" fill-opacity="1"><g transform="translate(85.404682, 28.172968)"><g><path d="M 8.484375 -9.5 C 8.054688 -9.5 7.632812 -9.425781 7.21875 -9.28125 C 6.800781 -9.144531 6.425781 -8.96875 6.09375 -8.75 L 5.921875 -2.90625 C 6.148438 -2.820312 6.390625 -2.753906 6.640625 -2.703125 C 6.890625 -2.648438 7.164062 -2.625 7.46875 -2.625 C 7.894531 -2.625 8.285156 -2.734375 8.640625 -2.953125 C 8.992188 -3.171875 9.300781 -3.46875 9.5625 -3.84375 C 9.820312 -4.226562 10.023438 -4.675781 10.171875 -5.1875 C 10.328125 -5.707031 10.40625 -6.269531 10.40625 -6.875 C 10.40625 -7.6875 10.226562 -8.328125 9.875 -8.796875 C 9.519531 -9.265625 9.054688 -9.5 8.484375 -9.5 Z M 5.546875 -10.578125 C 6.234375 -11.472656 6.96875 -12.160156 7.75 -12.640625 C 8.539062 -13.117188 9.414062 -13.359375 10.375 -13.359375 C 11.175781 -13.359375 11.863281 -13.195312 12.4375 -12.875 C 13.007812 -12.5625 13.472656 -12.148438 13.828125 -11.640625 C 14.191406 -11.128906 14.453125 -10.550781 14.609375 -9.90625 C 14.773438 -9.257812 14.859375 -8.597656 14.859375 -7.921875 C 14.859375 -7.015625 14.757812 -6.179688 14.5625 -5.421875 C 14.363281 -4.660156 14.09375 -3.972656 13.75 -3.359375 C 13.40625 -2.753906 13 -2.21875 12.53125 -1.75 C 12.0625 -1.28125 11.550781 -0.890625 11 -0.578125 C 10.457031 -0.265625 9.882812 -0.03125 9.28125 0.125 C 8.675781 0.28125 8.070312 0.359375 7.46875 0.359375 C 7.007812 0.359375 6.523438 0.332031 6.015625 0.28125 C 5.515625 0.238281 5.003906 0.160156 4.484375 0.046875 C 3.972656 -0.0664062 3.457031 -0.21875 2.9375 -0.40625 C 2.425781 -0.601562 1.914062 -0.851562 1.40625 -1.15625 C 1.488281 -2.03125 1.566406 -2.945312 1.640625 -3.90625 C 1.710938 -4.875 1.773438 -5.847656 1.828125 -6.828125 C 1.890625 -7.804688 1.941406 -8.773438 1.984375 -9.734375 C 2.035156 -10.691406 2.078125 -11.597656 2.109375 -12.453125 C 2.148438 -13.304688 2.175781 -14.09375 2.1875 -14.8125 C 2.207031 -15.53125 2.21875 -16.140625 2.21875 -16.640625 C 2.21875 -16.960938 2.191406 -17.285156 2.140625 -17.609375 C 2.085938 -17.941406 1.984375 -18.238281 1.828125 -18.5 C 1.671875 -18.757812 1.460938 -18.972656 1.203125 -19.140625 C 0.941406 -19.304688 0.597656 -19.398438 0.171875 -19.421875 L 0.265625 -21.734375 C 0.785156 -21.753906 1.359375 -21.796875 1.984375 -21.859375 C 2.609375 -21.921875 3.234375 -22 3.859375 -22.09375 C 4.484375 -22.1875 5.070312 -22.289062 5.625 -22.40625 C 6.1875 -22.519531 6.664062 -22.632812 7.0625 -22.75 Z M 5.546875 -10.578125 "/></g></g></g><g fill="#ffde59" fill-opacity="1"><g transform="translate(100.966284, 28.172968)"><g><path d="M 2.359375 -17.8125 C 2.359375 -18.257812 2.429688 -18.644531 2.578125 -18.96875 C 2.722656 -19.289062 2.910156 -19.550781 3.140625 -19.75 C 3.367188 -19.957031 3.632812 -20.109375 3.9375 -20.203125 C 4.25 -20.304688 4.5625 -20.359375 4.875 -20.359375 C 5.1875 -20.359375 5.492188 -20.304688 5.796875 -20.203125 C 6.097656 -20.109375 6.363281 -19.957031 6.59375 -19.75 C 6.832031 -19.550781 7.023438 -19.289062 7.171875 -18.96875 C 7.316406 -18.644531 7.390625 -18.257812 7.390625 -17.8125 C 7.390625 -17.414062 7.320312 -17.050781 7.1875 -16.71875 C 7.0625 -16.394531 6.882812 -16.113281 6.65625 -15.875 C 6.425781 -15.644531 6.160156 -15.460938 5.859375 -15.328125 C 5.554688 -15.203125 5.226562 -15.140625 4.875 -15.140625 C 4.519531 -15.140625 4.191406 -15.203125 3.890625 -15.328125 C 3.585938 -15.460938 3.320312 -15.644531 3.09375 -15.875 C 2.863281 -16.113281 2.679688 -16.394531 2.546875 -16.71875 C 2.421875 -17.050781 2.359375 -17.414062 2.359375 -17.8125 Z M 8.421875 0 L 8.09375 0 C 6.820312 0 5.664062 0.0351562 4.625 0.109375 C 3.582031 0.191406 2.570312 0.351562 1.59375 0.59375 C 1.695312 -0.0820312 1.796875 -0.742188 1.890625 -1.390625 C 1.992188 -2.035156 2.082031 -2.675781 2.15625 -3.3125 C 2.238281 -3.945312 2.300781 -4.582031 2.34375 -5.21875 C 2.394531 -5.851562 2.421875 -6.5 2.421875 -7.15625 C 2.421875 -8.101562 2.257812 -8.800781 1.9375 -9.25 C 1.613281 -9.695312 1.097656 -9.953125 0.390625 -10.015625 L 0.46875 -12.34375 C 1.78125 -12.394531 3.003906 -12.515625 4.140625 -12.703125 C 5.285156 -12.890625 6.347656 -13.109375 7.328125 -13.359375 C 7.117188 -11.984375 6.925781 -10.585938 6.75 -9.171875 C 6.582031 -7.753906 6.5 -6.390625 6.5 -5.078125 C 6.5 -4.117188 6.6875 -3.421875 7.0625 -2.984375 C 7.4375 -2.554688 7.921875 -2.34375 8.515625 -2.34375 Z M 8.421875 0 "/></g></g></g><g fill="#ffde59" fill-opacity="1"><g transform="translate(109.850384, 28.172968)"><g><path d="M 6.09375 -5.4375 C 6.09375 -5.0625 6.128906 -4.6875 6.203125 -4.3125 C 6.273438 -3.945312 6.394531 -3.617188 6.5625 -3.328125 C 6.726562 -3.035156 6.9375 -2.796875 7.1875 -2.609375 C 7.4375 -2.429688 7.738281 -2.34375 8.09375 -2.34375 L 8 0 L 7.671875 0 C 7.035156 0 6.429688 0.0078125 5.859375 0.03125 C 5.296875 0.0507812 4.753906 0.0820312 4.234375 0.125 C 3.710938 0.164062 3.203125 0.222656 2.703125 0.296875 C 2.210938 0.378906 1.722656 0.476562 1.234375 0.59375 C 1.472656 -1.207031 1.65625 -2.9375 1.78125 -4.59375 C 1.914062 -6.25 2.015625 -7.8125 2.078125 -9.28125 C 2.140625 -10.75 2.175781 -12.101562 2.1875 -13.34375 C 2.207031 -14.582031 2.21875 -15.679688 2.21875 -16.640625 C 2.21875 -17.535156 2.054688 -18.203125 1.734375 -18.640625 C 1.410156 -19.085938 0.890625 -19.347656 0.171875 -19.421875 L 0.265625 -21.734375 C 0.785156 -21.753906 1.359375 -21.796875 1.984375 -21.859375 C 2.609375 -21.921875 3.234375 -22 3.859375 -22.09375 C 4.484375 -22.1875 5.070312 -22.289062 5.625 -22.40625 C 6.1875 -22.519531 6.664062 -22.632812 7.0625 -22.75 C 6.800781 -20.664062 6.601562 -18.75 6.46875 -17 C 6.34375 -15.257812 6.25 -13.671875 6.1875 -12.234375 C 6.132812 -10.804688 6.101562 -9.523438 6.09375 -8.390625 C 6.09375 -7.265625 6.09375 -6.28125 6.09375 -5.4375 Z M 6.09375 -5.4375 "/></g></g></g><g fill="#ffde59" fill-opacity="1"><g transform="translate(118.330662, 28.172968)"><g><path d="M 15.59375 -1.21875 C 15.125 -0.726562 14.59375 -0.34375 14 -0.0625 C 13.414062 0.21875 12.78125 0.359375 12.09375 0.359375 C 11.269531 0.359375 10.617188 0.15625 10.140625 -0.25 C 9.660156 -0.664062 9.332031 -1.203125 9.15625 -1.859375 C 8.925781 -1.554688 8.664062 -1.269531 8.375 -1 C 8.082031 -0.726562 7.753906 -0.488281 7.390625 -0.28125 C 7.023438 -0.0820312 6.617188 0.0703125 6.171875 0.1875 C 5.722656 0.300781 5.222656 0.359375 4.671875 0.359375 C 4.003906 0.359375 3.425781 0.257812 2.9375 0.0625 C 2.457031 -0.125 2.054688 -0.378906 1.734375 -0.703125 C 1.421875 -1.023438 1.1875 -1.390625 1.03125 -1.796875 C 0.875 -2.210938 0.796875 -2.640625 0.796875 -3.078125 C 0.796875 -3.722656 0.925781 -4.289062 1.1875 -4.78125 C 1.445312 -5.269531 1.789062 -5.6875 2.21875 -6.03125 C 2.644531 -6.382812 3.132812 -6.675781 3.6875 -6.90625 C 4.238281 -7.132812 4.804688 -7.3125 5.390625 -7.4375 C 5.984375 -7.5625 6.566406 -7.648438 7.140625 -7.703125 C 7.710938 -7.765625 8.238281 -7.800781 8.71875 -7.8125 C 8.738281 -7.9375 8.75 -8.039062 8.75 -8.125 C 8.75 -8.207031 8.75 -8.296875 8.75 -8.390625 C 8.75 -8.921875 8.59375 -9.320312 8.28125 -9.59375 C 7.96875 -9.875 7.539062 -10.015625 7 -10.015625 C 6.789062 -10.015625 6.554688 -9.988281 6.296875 -9.9375 C 6.046875 -9.882812 5.796875 -9.789062 5.546875 -9.65625 C 5.296875 -9.519531 5.066406 -9.328125 4.859375 -9.078125 C 4.648438 -8.835938 4.488281 -8.53125 4.375 -8.15625 C 4.144531 -8.15625 3.859375 -8.164062 3.515625 -8.1875 C 3.179688 -8.207031 2.851562 -8.28125 2.53125 -8.40625 C 2.21875 -8.53125 1.945312 -8.722656 1.71875 -8.984375 C 1.5 -9.242188 1.390625 -9.601562 1.390625 -10.0625 C 1.390625 -10.445312 1.46875 -10.789062 1.625 -11.09375 C 1.789062 -11.40625 2.015625 -11.679688 2.296875 -11.921875 C 2.585938 -12.171875 2.921875 -12.382812 3.296875 -12.5625 C 3.671875 -12.738281 4.070312 -12.882812 4.5 -13 C 4.925781 -13.125 5.359375 -13.210938 5.796875 -13.265625 C 6.242188 -13.328125 6.675781 -13.359375 7.09375 -13.359375 C 7.976562 -13.359375 8.78125 -13.28125 9.5 -13.125 C 10.21875 -12.96875 10.828125 -12.707031 11.328125 -12.34375 C 11.835938 -11.976562 12.226562 -11.5 12.5 -10.90625 C 12.769531 -10.320312 12.90625 -9.601562 12.90625 -8.75 C 12.90625 -8.46875 12.890625 -8.097656 12.859375 -7.640625 C 12.828125 -7.179688 12.789062 -6.71875 12.75 -6.25 C 12.71875 -5.78125 12.6875 -5.335938 12.65625 -4.921875 C 12.625 -4.515625 12.609375 -4.222656 12.609375 -4.046875 C 12.609375 -3.835938 12.640625 -3.660156 12.703125 -3.515625 C 12.765625 -3.378906 12.84375 -3.269531 12.9375 -3.1875 C 13.03125 -3.101562 13.140625 -3.039062 13.265625 -3 C 13.390625 -2.96875 13.507812 -2.953125 13.625 -2.953125 C 13.78125 -2.953125 13.914062 -2.96875 14.03125 -3 C 14.15625 -3.03125 14.289062 -3.082031 14.4375 -3.15625 Z M 8.390625 -5.375 C 8.078125 -5.375 7.71875 -5.34375 7.3125 -5.28125 C 6.914062 -5.21875 6.546875 -5.117188 6.203125 -4.984375 C 5.859375 -4.847656 5.566406 -4.671875 5.328125 -4.453125 C 5.085938 -4.234375 4.96875 -3.972656 4.96875 -3.671875 C 4.96875 -3.398438 5.0625 -3.175781 5.25 -3 C 5.445312 -2.820312 5.726562 -2.734375 6.09375 -2.734375 C 6.363281 -2.734375 6.632812 -2.785156 6.90625 -2.890625 C 7.1875 -2.992188 7.441406 -3.148438 7.671875 -3.359375 C 7.898438 -3.566406 8.097656 -3.835938 8.265625 -4.171875 C 8.441406 -4.515625 8.5625 -4.914062 8.625 -5.375 Z M 8.390625 -5.375 "/></g></g></g><g fill="#ffde59" fill-opacity="1"><g transform="translate(133.748041, 28.172968)"><g/></g></g><g fill="#ffde59" fill-opacity="1"><g transform="translate(140.33901, 28.172968)"><g><path d="M 8.953125 -16.890625 C 8.921875 -16.335938 8.882812 -15.726562 8.84375 -15.0625 C 8.8125 -14.394531 8.78125 -13.707031 8.75 -13 C 8.726562 -12.300781 8.703125 -11.59375 8.671875 -10.875 C 8.648438 -10.15625 8.628906 -9.460938 8.609375 -8.796875 C 8.597656 -8.140625 8.585938 -7.523438 8.578125 -6.953125 C 8.566406 -6.390625 8.5625 -5.894531 8.5625 -5.46875 C 8.5625 -4.925781 8.601562 -4.488281 8.6875 -4.15625 C 8.78125 -3.832031 8.90625 -3.578125 9.0625 -3.390625 C 9.226562 -3.203125 9.425781 -3.066406 9.65625 -2.984375 C 9.882812 -2.910156 10.144531 -2.851562 10.4375 -2.8125 L 11 -2.71875 L 10.875 0.09375 C 10.445312 0.0507812 9.976562 0.0078125 9.46875 -0.03125 C 9.019531 -0.0625 8.503906 -0.0859375 7.921875 -0.109375 C 7.347656 -0.128906 6.71875 -0.140625 6.03125 -0.140625 C 5.363281 -0.140625 4.625 -0.128906 3.8125 -0.109375 C 3 -0.0976562 2.070312 -0.03125 1.03125 0.09375 L 1.15625 -2.71875 C 1.40625 -2.738281 1.664062 -2.765625 1.9375 -2.796875 C 2.164062 -2.816406 2.421875 -2.835938 2.703125 -2.859375 C 2.984375 -2.890625 3.265625 -2.90625 3.546875 -2.90625 C 3.585938 -3.457031 3.617188 -4.070312 3.640625 -4.75 C 3.671875 -5.425781 3.703125 -6.128906 3.734375 -6.859375 C 3.773438 -7.585938 3.804688 -8.320312 3.828125 -9.0625 C 3.847656 -9.800781 3.867188 -10.507812 3.890625 -11.1875 C 3.910156 -11.863281 3.925781 -12.492188 3.9375 -13.078125 C 3.945312 -13.671875 3.953125 -14.175781 3.953125 -14.59375 C 3.953125 -15.125 3.90625 -15.550781 3.8125 -15.875 C 3.726562 -16.207031 3.609375 -16.46875 3.453125 -16.65625 C 3.296875 -16.84375 3.101562 -16.976562 2.875 -17.0625 C 2.644531 -17.144531 2.382812 -17.207031 2.09375 -17.25 L 1.53125 -17.34375 L 1.65625 -20.15625 C 2.082031 -20.113281 2.519531 -20.078125 2.96875 -20.046875 C 3.351562 -20.035156 3.769531 -20.019531 4.21875 -20 C 4.664062 -19.976562 5.101562 -19.96875 5.53125 -19.96875 C 6.21875 -19.96875 6.828125 -19.976562 7.359375 -20 C 7.890625 -20.03125 8.375 -20.054688 8.8125 -20.078125 C 9.257812 -20.097656 9.679688 -20.117188 10.078125 -20.140625 C 10.484375 -20.171875 10.914062 -20.1875 11.375 -20.1875 C 12.570312 -20.1875 13.628906 -20.046875 14.546875 -19.765625 C 15.460938 -19.492188 16.226562 -19.097656 16.84375 -18.578125 C 17.46875 -18.054688 17.9375 -17.425781 18.25 -16.6875 C 18.5625 -15.945312 18.71875 -15.113281 18.71875 -14.1875 C 18.71875 -13.445312 18.613281 -12.765625 18.40625 -12.140625 C 18.207031 -11.515625 17.925781 -10.953125 17.5625 -10.453125 C 17.207031 -9.960938 16.789062 -9.53125 16.3125 -9.15625 C 15.832031 -8.789062 15.320312 -8.484375 14.78125 -8.234375 C 14.238281 -7.992188 13.675781 -7.8125 13.09375 -7.6875 C 12.519531 -7.5625 11.957031 -7.5 11.40625 -7.5 C 10.863281 -7.5 10.34375 -7.554688 9.84375 -7.671875 L 9.984375 -10.828125 C 10.160156 -10.785156 10.289062 -10.757812 10.375 -10.75 C 10.46875 -10.75 10.570312 -10.75 10.6875 -10.75 C 11.082031 -10.75 11.445312 -10.820312 11.78125 -10.96875 C 12.125 -11.113281 12.421875 -11.316406 12.671875 -11.578125 C 12.921875 -11.847656 13.113281 -12.175781 13.25 -12.5625 C 13.394531 -12.957031 13.46875 -13.398438 13.46875 -13.890625 C 13.46875 -14.878906 13.144531 -15.640625 12.5 -16.171875 C 11.863281 -16.703125 10.992188 -16.96875 9.890625 -16.96875 C 9.734375 -16.96875 9.566406 -16.957031 9.390625 -16.9375 C 9.210938 -16.925781 9.066406 -16.910156 8.953125 -16.890625 Z M 8.953125 -16.890625 "/></g></g></g><g fill="#ffde59" fill-opacity="1"><g transform="translate(159.390786, 28.172968)"><g><path d="M 14.484375 -5.140625 C 14.484375 -4.234375 14.671875 -3.550781 15.046875 -3.09375 C 15.429688 -2.644531 15.976562 -2.394531 16.6875 -2.34375 L 16.609375 0 L 16.40625 0 C 15.84375 0 15.332031 0.0078125 14.875 0.03125 C 14.425781 0.0625 13.992188 0.0976562 13.578125 0.140625 C 13.171875 0.191406 12.769531 0.253906 12.375 0.328125 C 11.976562 0.398438 11.566406 0.488281 11.140625 0.59375 L 11.703125 -2.421875 C 11.441406 -2.085938 11.101562 -1.753906 10.6875 -1.421875 C 10.269531 -1.097656 9.800781 -0.800781 9.28125 -0.53125 C 8.769531 -0.257812 8.222656 -0.046875 7.640625 0.109375 C 7.066406 0.273438 6.492188 0.359375 5.921875 0.359375 C 5.335938 0.359375 4.800781 0.265625 4.3125 0.078125 C 3.820312 -0.0976562 3.394531 -0.367188 3.03125 -0.734375 C 2.675781 -1.109375 2.394531 -1.570312 2.1875 -2.125 C 1.988281 -2.675781 1.890625 -3.328125 1.890625 -4.078125 C 1.890625 -4.710938 1.921875 -5.335938 1.984375 -5.953125 C 2.054688 -6.566406 2.09375 -7.128906 2.09375 -7.640625 C 2.09375 -7.941406 2.050781 -8.222656 1.96875 -8.484375 C 1.894531 -8.753906 1.78125 -8.988281 1.625 -9.1875 C 1.476562 -9.394531 1.289062 -9.566406 1.0625 -9.703125 C 0.832031 -9.835938 0.566406 -9.921875 0.265625 -9.953125 L 0.359375 -12.296875 C 1.003906 -12.316406 1.625 -12.359375 2.21875 -12.421875 C 2.8125 -12.484375 3.375 -12.5625 3.90625 -12.65625 C 4.445312 -12.757812 4.96875 -12.867188 5.46875 -12.984375 C 5.976562 -13.109375 6.476562 -13.234375 6.96875 -13.359375 C 6.863281 -12.734375 6.765625 -12.050781 6.671875 -11.3125 C 6.578125 -10.582031 6.488281 -9.847656 6.40625 -9.109375 C 6.332031 -8.378906 6.273438 -7.675781 6.234375 -7 C 6.191406 -6.332031 6.171875 -5.753906 6.171875 -5.265625 C 6.171875 -4.929688 6.21875 -4.648438 6.3125 -4.421875 C 6.414062 -4.191406 6.546875 -4.007812 6.703125 -3.875 C 6.867188 -3.738281 7.066406 -3.640625 7.296875 -3.578125 C 7.523438 -3.515625 7.78125 -3.484375 8.0625 -3.484375 C 8.46875 -3.484375 8.859375 -3.554688 9.234375 -3.703125 C 9.609375 -3.847656 9.929688 -4.003906 10.203125 -4.171875 C 10.210938 -4.367188 10.222656 -4.632812 10.234375 -4.96875 C 10.242188 -5.3125 10.253906 -5.695312 10.265625 -6.125 C 10.285156 -6.550781 10.296875 -7.007812 10.296875 -7.5 C 10.304688 -7.988281 10.3125 -8.484375 10.3125 -8.984375 C 10.3125 -9.578125 10.304688 -10.1875 10.296875 -10.8125 C 10.296875 -11.445312 10.273438 -12.078125 10.234375 -12.703125 C 11.242188 -12.703125 12.179688 -12.769531 13.046875 -12.90625 C 13.910156 -13.050781 14.644531 -13.203125 15.25 -13.359375 C 15.09375 -12.515625 14.960938 -11.671875 14.859375 -10.828125 C 14.765625 -9.984375 14.6875 -9.191406 14.625 -8.453125 C 14.570312 -7.722656 14.535156 -7.066406 14.515625 -6.484375 C 14.492188 -5.898438 14.484375 -5.453125 14.484375 -5.140625 Z M 14.484375 -5.140625 "/></g></g></g><g fill="#ffde59" fill-opacity="1"><g transform="translate(176.466718, 28.172968)"><g><path d="M 5.5 0.390625 C 4.738281 0.390625 4.125 0.269531 3.65625 0.03125 C 3.195312 -0.207031 2.84375 -0.523438 2.59375 -0.921875 C 2.351562 -1.328125 2.191406 -1.785156 2.109375 -2.296875 C 2.035156 -2.816406 2 -3.347656 2 -3.890625 C 2 -4.222656 2.007812 -4.628906 2.03125 -5.109375 C 2.0625 -5.597656 2.09375 -6.128906 2.125 -6.703125 C 2.15625 -7.285156 2.191406 -7.898438 2.234375 -8.546875 C 2.285156 -9.191406 2.328125 -9.847656 2.359375 -10.515625 L 0 -10.75 L 0.09375 -13 L 2.453125 -13 C 2.460938 -13.34375 2.46875 -13.660156 2.46875 -13.953125 C 2.476562 -14.242188 2.484375 -14.523438 2.484375 -14.796875 C 2.492188 -15.066406 2.5 -15.335938 2.5 -15.609375 C 2.507812 -15.890625 2.515625 -16.179688 2.515625 -16.484375 L 7.25 -17.609375 C 7.125 -16.828125 7.019531 -16.050781 6.9375 -15.28125 C 6.863281 -14.507812 6.796875 -13.75 6.734375 -13 C 7.054688 -13.007812 7.382812 -13.023438 7.71875 -13.046875 C 8.050781 -13.066406 8.382812 -13.09375 8.71875 -13.125 C 9.050781 -13.15625 9.363281 -13.1875 9.65625 -13.21875 C 9.957031 -13.257812 10.234375 -13.304688 10.484375 -13.359375 L 10.015625 -9.921875 L 6.53125 -10.046875 C 6.46875 -9.171875 6.414062 -8.300781 6.375 -7.4375 C 6.332031 -6.582031 6.3125 -5.828125 6.3125 -5.171875 C 6.3125 -4.796875 6.359375 -4.488281 6.453125 -4.25 C 6.554688 -4.019531 6.679688 -3.835938 6.828125 -3.703125 C 6.984375 -3.566406 7.148438 -3.46875 7.328125 -3.40625 C 7.503906 -3.351562 7.671875 -3.328125 7.828125 -3.328125 C 8.140625 -3.328125 8.4375 -3.382812 8.71875 -3.5 C 9.007812 -3.613281 9.253906 -3.734375 9.453125 -3.859375 L 10.640625 -1.890625 C 10.316406 -1.554688 9.953125 -1.25 9.546875 -0.96875 C 9.140625 -0.6875 8.710938 -0.441406 8.265625 -0.234375 C 7.816406 -0.0351562 7.351562 0.113281 6.875 0.21875 C 6.40625 0.332031 5.945312 0.390625 5.5 0.390625 Z M 5.5 0.390625 "/></g></g></g><g fill="#ffde59" fill-opacity="1"><g transform="translate(187.744919, 28.172968)"><g><path d="M 6.6875 -8.890625 C 6.664062 -8.691406 6.640625 -8.421875 6.609375 -8.078125 C 6.585938 -7.734375 6.566406 -7.34375 6.546875 -6.90625 C 6.523438 -6.46875 6.507812 -5.992188 6.5 -5.484375 C 6.488281 -4.972656 6.484375 -4.460938 6.484375 -3.953125 C 6.484375 -3.316406 6.484375 -2.660156 6.484375 -1.984375 C 6.492188 -1.316406 6.539062 -0.65625 6.625 0 C 5.601562 0 4.65625 0.0546875 3.78125 0.171875 C 2.914062 0.296875 2.179688 0.4375 1.578125 0.59375 C 1.703125 -0.101562 1.804688 -0.828125 1.890625 -1.578125 C 1.984375 -2.328125 2.0625 -3.046875 2.125 -3.734375 C 2.195312 -4.429688 2.25 -5.078125 2.28125 -5.671875 C 2.320312 -6.265625 2.34375 -6.757812 2.34375 -7.15625 C 2.34375 -8.113281 2.179688 -8.8125 1.859375 -9.25 C 1.535156 -9.695312 1.007812 -9.953125 0.28125 -10.015625 L 0.390625 -12.34375 C 0.910156 -12.363281 1.441406 -12.40625 1.984375 -12.46875 C 2.535156 -12.53125 3.070312 -12.609375 3.59375 -12.703125 C 4.125 -12.796875 4.625 -12.898438 5.09375 -13.015625 C 5.570312 -13.128906 6.007812 -13.242188 6.40625 -13.359375 L 5.859375 -10.484375 C 6.148438 -10.921875 6.46875 -11.316406 6.8125 -11.671875 C 7.164062 -12.023438 7.523438 -12.328125 7.890625 -12.578125 C 8.253906 -12.828125 8.617188 -13.019531 8.984375 -13.15625 C 9.359375 -13.289062 9.726562 -13.359375 10.09375 -13.359375 C 10.90625 -13.359375 11.535156 -13.128906 11.984375 -12.671875 C 12.429688 -12.222656 12.65625 -11.582031 12.65625 -10.75 C 12.65625 -10.15625 12.539062 -9.671875 12.3125 -9.296875 C 12.082031 -8.921875 11.789062 -8.578125 11.4375 -8.265625 C 11.28125 -8.398438 11.097656 -8.523438 10.890625 -8.640625 C 10.691406 -8.765625 10.472656 -8.875 10.234375 -8.96875 C 10.003906 -9.070312 9.765625 -9.148438 9.515625 -9.203125 C 9.273438 -9.253906 9.035156 -9.28125 8.796875 -9.28125 C 8.640625 -9.28125 8.460938 -9.269531 8.265625 -9.25 C 8.078125 -9.238281 7.878906 -9.210938 7.671875 -9.171875 C 7.472656 -9.140625 7.285156 -9.097656 7.109375 -9.046875 C 6.941406 -9.003906 6.800781 -8.953125 6.6875 -8.890625 Z M 6.6875 -8.890625 "/></g></g></g><g fill="#ffde59" fill-opacity="1"><g transform="translate(200.681682, 28.172968)"><g><path d="M 2.359375 -17.8125 C 2.359375 -18.257812 2.429688 -18.644531 2.578125 -18.96875 C 2.722656 -19.289062 2.910156 -19.550781 3.140625 -19.75 C 3.367188 -19.957031 3.632812 -20.109375 3.9375 -20.203125 C 4.25 -20.304688 4.5625 -20.359375 4.875 -20.359375 C 5.1875 -20.359375 5.492188 -20.304688 5.796875 -20.203125 C 6.097656 -20.109375 6.363281 -19.957031 6.59375 -19.75 C 6.832031 -19.550781 7.023438 -19.289062 7.171875 -18.96875 C 7.316406 -18.644531 7.390625 -18.257812 7.390625 -17.8125 C 7.390625 -17.414062 7.320312 -17.050781 7.1875 -16.71875 C 7.0625 -16.394531 6.882812 -16.113281 6.65625 -15.875 C 6.425781 -15.644531 6.160156 -15.460938 5.859375 -15.328125 C 5.554688 -15.203125 5.226562 -15.140625 4.875 -15.140625 C 4.519531 -15.140625 4.191406 -15.203125 3.890625 -15.328125 C 3.585938 -15.460938 3.320312 -15.644531 3.09375 -15.875 C 2.863281 -16.113281 2.679688 -16.394531 2.546875 -16.71875 C 2.421875 -17.050781 2.359375 -17.414062 2.359375 -17.8125 Z M 8.421875 0 L 8.09375 0 C 6.820312 0 5.664062 0.0351562 4.625 0.109375 C 3.582031 0.191406 2.570312 0.351562 1.59375 0.59375 C 1.695312 -0.0820312 1.796875 -0.742188 1.890625 -1.390625 C 1.992188 -2.035156 2.082031 -2.675781 2.15625 -3.3125 C 2.238281 -3.945312 2.300781 -4.582031 2.34375 -5.21875 C 2.394531 -5.851562 2.421875 -6.5 2.421875 -7.15625 C 2.421875 -8.101562 2.257812 -8.800781 1.9375 -9.25 C 1.613281 -9.695312 1.097656 -9.953125 0.390625 -10.015625 L 0.46875 -12.34375 C 1.78125 -12.394531 3.003906 -12.515625 4.140625 -12.703125 C 5.285156 -12.890625 6.347656 -13.109375 7.328125 -13.359375 C 7.117188 -11.984375 6.925781 -10.585938 6.75 -9.171875 C 6.582031 -7.753906 6.5 -6.390625 6.5 -5.078125 C 6.5 -4.117188 6.6875 -3.421875 7.0625 -2.984375 C 7.4375 -2.554688 7.921875 -2.34375 8.515625 -2.34375 Z M 8.421875 0 "/></g></g></g></svg>